<mxfile host="drawio-plugin" modified="2023-05-30T18:45:43.364Z" agent="5.0 (X11; Linux x86_64) AppleWebKit/537.36 (KHTML, like Gecko) Chrome/104.0.5112.102 Safari/537.36" etag="P2oImpo879-ry3s1YGPg" version="20.5.3" type="embed"><diagram id="LNyQLRyhQNWnT3oHipIV" name="Page-1"><mxGraphModel dx="1337" dy="688" grid="1" gridSize="10" guides="1" tooltips="1" connect="1" arrows="1" fold="1" page="1" pageScale="1" pageWidth="827" pageHeight="1169" math="0" shadow="0"><root><mxCell id="0"/><mxCell id="1" parent="0"/><mxCell id="2" value="«interface»&lt;br&gt;&lt;b&gt;ProxyInterface&lt;/b&gt;" style="html=1;fillColor=#fff2cc;strokeColor=#d6b656;" parent="1" vertex="1"><mxGeometry x="430" y="317" width="120" height="40" as="geometry"/></mxCell><mxCell id="12" value="«interface»&lt;br&gt;&lt;b&gt;StateInterface&lt;/b&gt;" style="html=1;fillColor=#fff2cc;strokeColor=#d6b656;" parent="1" vertex="1"><mxGeometry x="560" y="80" width="120" height="40" as="geometry"/></mxCell><mxCell id="13" value="&lt;p style=&quot;margin:0px;margin-top:6px;text-align:center;&quot;&gt;&lt;b&gt;ProxyTrait&lt;/b&gt;&lt;/p&gt;&lt;hr&gt;&lt;p style=&quot;margin:0px;margin-left:8px;&quot;&gt;+ __call()&lt;/p&gt;&lt;p style=&quot;margin:0px;margin-left:8px;&quot;&gt;+ switchState()&lt;/p&gt;&lt;p style=&quot;margin:0px;margin-left:8px;&quot;&gt;+ enabeState()&lt;/p&gt;&lt;p style=&quot;margin:0px;margin-left:8px;&quot;&gt;+ disableState()&lt;/p&gt;&lt;p style=&quot;margin:0px;margin-left:8px;&quot;&gt;+ isInState()&lt;/p&gt;&lt;p style=&quot;margin:0px;margin-left:8px;&quot;&gt;...&lt;/p&gt;" style="align=left;overflow=fill;html=1;dropTarget=0;fillColor=#ffe6cc;strokeColor=#d79b00;" parent="1" vertex="1"><mxGeometry x="40" y="150" width="140" height="130" as="geometry"/></mxCell><mxCell id="14" value="" style="shape=component;jettyWidth=8;jettyHeight=4;" parent="13" vertex="1"><mxGeometry x="1" width="20" height="20" relative="1" as="geometry"><mxPoint x="-24" y="4" as="offset"/></mxGeometry></mxCell><mxCell id="15" value="&lt;p style=&quot;margin:0px;margin-top:6px;text-align:center;&quot;&gt;&lt;b&gt;StateTrait&lt;/b&gt;&lt;/p&gt;&lt;hr&gt;&lt;p style=&quot;margin:0px;margin-left:8px;&quot;&gt;+ executeClosure()&lt;/p&gt;" style="align=left;overflow=fill;html=1;dropTarget=0;fillColor=#ffe6cc;strokeColor=#d79b00;" parent="1" vertex="1"><mxGeometry x="680" y="180" width="120" height="70" as="geometry"/></mxCell><mxCell id="16" value="" style="shape=component;jettyWidth=8;jettyHeight=4;" parent="15" vertex="1"><mxGeometry x="1" width="20" height="20" relative="1" as="geometry"><mxPoint x="-24" y="4" as="offset"/></mxGeometry></mxCell><mxCell id="31" value="A Proxy Class" style="html=1;fillColor=#d5e8d4;strokeColor=#82b366;" parent="1" vertex="1"><mxGeometry x="240" y="200" width="120" height="40" as="geometry"/></mxCell><mxCell id="32" value="A State Class" style="html=1;fillColor=#d5e8d4;strokeColor=#82b366;" parent="1" vertex="1"><mxGeometry x="480" y="160" width="120" height="40" as="geometry"/></mxCell><mxCell id="33" value="Another State Class" style="html=1;fillColor=#d5e8d4;strokeColor=#82b366;" parent="1" vertex="1"><mxGeometry x="480" y="230" width="120" height="40" as="geometry"/></mxCell><mxCell id="34" value="1" style="endArrow=none;html=1;endSize=12;startArrow=diamondThin;startSize=14;startFill=1;edgeStyle=orthogonalEdgeStyle;align=left;verticalAlign=bottom;rounded=0;entryX=0;entryY=0.5;entryDx=0;entryDy=0;endFill=0;" parent="1" target="32" edge="1"><mxGeometry x="-1" y="3" relative="1" as="geometry"><mxPoint x="180" y="180" as="sourcePoint"/><mxPoint x="490" y="170" as="targetPoint"/></mxGeometry></mxCell><mxCell id="35" value="1" style="endArrow=none;html=1;endSize=12;startArrow=diamondThin;startSize=14;startFill=1;edgeStyle=orthogonalEdgeStyle;align=left;verticalAlign=bottom;rounded=0;entryX=0;entryY=0.5;entryDx=0;entryDy=0;endFill=0;" parent="1" target="33" edge="1"><mxGeometry x="-1" y="3" relative="1" as="geometry"><mxPoint x="180" y="180" as="sourcePoint"/><mxPoint x="490" y="190" as="targetPoint"/><Array as="points"><mxPoint x="400" y="180"/><mxPoint x="400" y="250"/></Array></mxGeometry></mxCell><mxCell id="36" value="" style="endArrow=block;dashed=1;endFill=0;endSize=12;html=1;rounded=0;exitX=0.794;exitY=1.071;exitDx=0;exitDy=0;entryX=0.001;entryY=0.583;entryDx=0;entryDy=0;exitPerimeter=0;entryPerimeter=0;" parent="1" source="31" target="2" edge="1"><mxGeometry width="160" relative="1" as="geometry"><mxPoint x="330" y="170" as="sourcePoint"/><mxPoint x="490" y="170" as="targetPoint"/><Array as="points"><mxPoint x="335" y="340"/></Array></mxGeometry></mxCell><mxCell id="37" value="" style="endArrow=block;dashed=1;endFill=0;endSize=12;html=1;rounded=0;exitX=0.5;exitY=0;exitDx=0;exitDy=0;entryX=0.5;entryY=1;entryDx=0;entryDy=0;" parent="1" source="32" target="12" edge="1"><mxGeometry width="160" relative="1" as="geometry"><mxPoint x="330" y="170" as="sourcePoint"/><mxPoint x="490" y="170" as="targetPoint"/><Array as="points"><mxPoint x="540" y="140"/><mxPoint x="620" y="140"/></Array></mxGeometry></mxCell><mxCell id="39" value="" style="endArrow=block;endSize=12;dashed=1;html=1;rounded=0;exitX=0.5;exitY=0;exitDx=0;exitDy=0;endFill=0;" parent="1" source="33" edge="1"><mxGeometry width="160" relative="1" as="geometry"><mxPoint x="390" y="160" as="sourcePoint"/><mxPoint x="620" y="120" as="targetPoint"/><Array as="points"><mxPoint x="540" y="210"/><mxPoint x="620" y="210"/></Array></mxGeometry></mxCell><mxCell id="40" value="" style="endArrow=block;endSize=16;endFill=0;html=1;rounded=0;entryX=0.993;entryY=0.536;entryDx=0;entryDy=0;entryPerimeter=0;exitX=0;exitY=0.5;exitDx=0;exitDy=0;" parent="1" source="31" target="13" edge="1"><mxGeometry x="0.006" y="-39" width="160" relative="1" as="geometry"><mxPoint x="140" y="180" as="sourcePoint"/><mxPoint x="300" y="180" as="targetPoint"/><mxPoint as="offset"/></mxGeometry></mxCell><mxCell id="41" value="" style="endArrow=block;endSize=16;endFill=0;html=1;rounded=0;entryX=0;entryY=0.5;entryDx=0;entryDy=0;exitX=1;exitY=0.5;exitDx=0;exitDy=0;" parent="1" source="32" target="15" edge="1"><mxGeometry x="0.006" y="-39" width="160" relative="1" as="geometry"><mxPoint x="250" y="229.9999999999999" as="sourcePoint"/><mxPoint x="189.01999999999998" y="229.96000000000004" as="targetPoint"/><mxPoint as="offset"/><Array as="points"><mxPoint x="640" y="180"/><mxPoint x="640" y="215"/></Array></mxGeometry></mxCell><mxCell id="42" value="" style="endArrow=block;endSize=16;endFill=0;html=1;rounded=0;entryX=0;entryY=0.5;entryDx=0;entryDy=0;" parent="1" target="15" edge="1"><mxGeometry x="0.006" y="-39" width="160" relative="1" as="geometry"><mxPoint x="600" y="250" as="sourcePoint"/><mxPoint x="680" y="265.0000000000001" as="targetPoint"/><mxPoint as="offset"/><Array as="points"><mxPoint x="640" y="250"/><mxPoint x="640" y="215"/></Array></mxGeometry></mxCell><mxCell id="43" value="«interface»&lt;br&gt;&lt;b&gt;AutomatedInterface&lt;/b&gt;" style="html=1;fillColor=#fff2cc;strokeColor=#d6b656;" parent="1" vertex="1"><mxGeometry x="50" y="317" width="120" height="40" as="geometry"/></mxCell><mxCell id="44" value="" style="endArrow=block;dashed=1;endFill=0;endSize=12;html=1;rounded=0;exitX=0.294;exitY=1.053;exitDx=0;exitDy=0;entryX=1;entryY=0.5;entryDx=0;entryDy=0;exitPerimeter=0;" parent="1" source="31" target="43" edge="1"><mxGeometry width="160" relative="1" as="geometry"><mxPoint x="310" y="209.9999999999999" as="sourcePoint"/><mxPoint x="310" y="130" as="targetPoint"/><Array as="points"><mxPoint x="275" y="337"/></Array></mxGeometry></mxCell><mxCell id="45" value="&lt;p style=&quot;margin:0px;margin-top:6px;text-align:center;&quot;&gt;&lt;b&gt;AutomatedTrait&lt;/b&gt;&lt;/p&gt;&lt;hr&gt;&lt;p style=&quot;margin:0px;margin-left:8px;&quot;&gt;+ updateStates()&lt;/p&gt;" style="align=left;overflow=fill;html=1;dropTarget=0;fillColor=#ffe6cc;strokeColor=#d79b00;" parent="1" vertex="1"><mxGeometry x="225" y="420" width="150" height="70" as="geometry"/></mxCell><mxCell id="46" value="" style="shape=component;jettyWidth=8;jettyHeight=4;" parent="45" vertex="1"><mxGeometry x="1" width="20" height="20" relative="1" as="geometry"><mxPoint x="-24" y="4" as="offset"/></mxGeometry></mxCell><mxCell id="47" value="" style="endArrow=block;endSize=16;endFill=0;html=1;rounded=0;entryX=0.543;entryY=-0.014;entryDx=0;entryDy=0;entryPerimeter=0;exitX=0.54;exitY=1.061;exitDx=0;exitDy=0;exitPerimeter=0;" parent="1" source="31" target="45" edge="1"><mxGeometry x="0.006" y="-39" width="160" relative="1" as="geometry"><mxPoint x="250" y="230" as="sourcePoint"/><mxPoint x="189.0200000000001" y="229.68000000000006" as="targetPoint"/><mxPoint as="offset"/></mxGeometry></mxCell><mxCell id="48" value="&amp;lt;Assertion&amp;gt;" style="html=1;gradientColor=#B9E0A5;fillColor=#FFCE9F;gradientDirection=west;" parent="1" vertex="1"><mxGeometry x="480" y="435" width="120" height="40" as="geometry"/></mxCell><mxCell id="50" value="" style="endArrow=diamondThin;endFill=1;endSize=24;html=1;rounded=0;entryX=1;entryY=0.5;entryDx=0;entryDy=0;exitX=0;exitY=0.5;exitDx=0;exitDy=0;" parent="1" source="48" target="45" edge="1"><mxGeometry width="160" relative="1" as="geometry"><mxPoint x="240" y="350" as="sourcePoint"/><mxPoint x="400" y="350" as="targetPoint"/></mxGeometry></mxCell><mxCell id="53" value="*" style="edgeLabel;html=1;align=center;verticalAlign=middle;resizable=0;points=[];" parent="50" vertex="1" connectable="0"><mxGeometry x="-0.4384" y="-2" relative="1" as="geometry"><mxPoint x="20" y="2" as="offset"/></mxGeometry></mxCell><mxCell id="51" value="«interface»&lt;br&gt;&lt;b&gt;AssertionInterface&lt;/b&gt;" style="html=1;fillColor=#fff2cc;strokeColor=#d6b656;" parent="1" vertex="1"><mxGeometry x="680" y="435" width="120" height="40" as="geometry"/></mxCell><mxCell id="52" value="" style="endArrow=block;dashed=1;endFill=0;endSize=12;html=1;rounded=0;exitX=1;exitY=0.5;exitDx=0;exitDy=0;entryX=-0.026;entryY=0.5;entryDx=0;entryDy=0;entryPerimeter=0;" parent="1" source="48" target="51" edge="1"><mxGeometry width="160" relative="1" as="geometry"><mxPoint x="345.28" y="252.84000000000003" as="sourcePoint"/><mxPoint x="440.1200000000001" y="350.31999999999994" as="targetPoint"/><Array as="points"/></mxGeometry></mxCell></root></mxGraphModel></diagram></mxfile>